<svg width="18" height="19" viewBox="0 0 18 19" fill="none" xmlns="http://www.w3.org/2000/svg">
<path fill-rule="evenodd" clip-rule="evenodd" d="M6.50011 17.5C6.50011 17.0398 6.8732 16.6667 7.33344 16.6667H10.6668C11.127 16.6667 11.5001 17.0398 11.5001 17.5C11.5001 17.9603 11.127 18.3334 10.6668 18.3334H7.33344C6.8732 18.3334 6.50011 17.9603 6.50011 17.5Z" fill="#98A2B3"/>
<path fill-rule="evenodd" clip-rule="evenodd" d="M4.87532 2.54192C5.96928 1.44796 7.45301 0.833374 9.00011 0.833374C10.5472 0.833374 12.0309 1.44796 13.1249 2.54192C14.2189 3.63588 14.8334 5.11961 14.8334 6.66671C14.8334 9.09394 15.4434 10.7033 16.0829 11.731L16.0928 11.7469C16.3906 12.2253 16.6259 12.6036 16.7846 12.8789C16.8641 13.0169 16.9366 13.1498 16.9902 13.2679C17.017 13.3269 17.0469 13.3992 17.0703 13.4778C17.0898 13.543 17.1268 13.6823 17.1129 13.8519C17.1036 13.9659 17.0803 14.1607 16.9685 14.362C16.8567 14.5632 16.7036 14.6858 16.6118 14.754C16.4032 14.9087 16.1637 14.9441 16.0837 14.9559L16.08 14.9564C15.9572 14.9746 15.8178 14.9837 15.6772 14.9892C15.3978 15 15.011 15 14.53 15H3.47023C2.98921 15 2.60243 15 2.32305 14.9892C2.18242 14.9837 2.04302 14.9746 1.92018 14.9564L1.91649 14.9559C1.83655 14.9441 1.59702 14.9087 1.38845 14.754C1.29658 14.6858 1.14347 14.5632 1.03168 14.362C0.919886 14.1607 0.896642 13.9659 0.887318 13.8519C0.873445 13.6823 0.910446 13.543 0.929867 13.4778C0.953277 13.3992 0.983228 13.3269 1.01 13.2679C1.06364 13.1498 1.13608 13.0169 1.2156 12.8789C1.37429 12.6036 1.60969 12.2253 1.90746 11.7468L1.91729 11.731C2.55677 10.7033 3.16677 9.09394 3.16677 6.66671C3.16677 5.11961 3.78136 3.63588 4.87532 2.54192Z" fill="#98A2B3"/>
</svg>
