<svg width="18" height="18" viewBox="0 0 18 18" fill="none" xmlns="http://www.w3.org/2000/svg">
<path fill-rule="evenodd" clip-rule="evenodd" d="M9.43553 0.113589C9.15028 0.0363557 8.84962 0.0363557 8.56437 0.113589C8.23324 0.203247 7.95445 0.422125 7.73194 0.596817L7.66975 0.645498L1.95307 5.09173C1.63921 5.3353 1.3627 5.54988 1.15665 5.82847C0.975827 6.07295 0.841122 6.34838 0.759154 6.64121C0.665754 6.97489 0.666132 7.3249 0.666561 7.72218L0.666619 13.8654C0.666604 14.3047 0.666592 14.6837 0.692095 14.9958C0.719012 15.3253 0.778442 15.6529 0.939104 15.9683C1.17879 16.4387 1.56124 16.8211 2.03164 17.0608C2.34696 17.2215 2.67464 17.2809 3.0041 17.3078C3.31624 17.3333 3.6952 17.3333 4.13448 17.3333H13.8654C14.3047 17.3333 14.6837 17.3333 14.9958 17.3078C15.3253 17.2809 15.6529 17.2215 15.9683 17.0608C16.4387 16.8211 16.8211 16.4387 17.0608 15.9683C17.2215 15.6529 17.2809 15.3253 17.3078 14.9958C17.3333 14.6837 17.3333 14.3047 17.3333 13.8654L17.3333 7.72219C17.3338 7.3249 17.3342 6.97489 17.2408 6.64121C17.1588 6.34838 17.0241 6.07295 16.8433 5.82847C16.6372 5.54988 16.3607 5.33529 16.0468 5.09172L10.3302 0.645498L10.268 0.59682C10.0455 0.422128 9.76667 0.203248 9.43553 0.113589ZM5.66663 12.3333C5.20639 12.3333 4.8333 12.7064 4.8333 13.1666C4.8333 13.6269 5.20639 14 5.66663 14H12.3333C12.7935 14 13.1666 13.6269 13.1666 13.1666C13.1666 12.7064 12.7935 12.3333 12.3333 12.3333H5.66663Z" fill="#98A2B3"/>
</svg>
