<svg width="18" height="18" viewBox="0 0 18 18" fill="none" xmlns="http://www.w3.org/2000/svg">
<path d="M5.7814 0.666543C6.44422 0.666184 6.93644 0.665918 7.36281 0.780165C8.51312 1.08839 9.41161 1.98688 9.71984 3.13719C9.83408 3.56356 9.83382 4.05579 9.83346 4.7186V5.1666C9.83346 5.63332 9.83346 5.86667 9.74263 6.04493C9.66274 6.20173 9.53525 6.32922 9.37845 6.40911C9.20019 6.49994 8.96684 6.49994 8.50013 6.49994H6.50008C5.11937 6.49994 4.00008 7.61923 4.00008 8.99994C4.00008 10.3807 5.11937 11.4999 6.50008 11.4999H8.50012C8.96684 11.4999 9.20019 11.4999 9.37845 11.5908C9.53525 11.6707 9.66274 11.7981 9.74263 11.9549C9.83346 12.1332 9.83346 12.3666 9.83346 12.8333V13.2812C9.83382 13.9441 9.83408 14.4363 9.71984 14.8626C9.41161 16.013 8.51312 16.9114 7.36281 17.2197C6.93644 17.3339 6.44422 17.3337 5.7814 17.3333L5.22152 17.3333C4.66336 17.3333 4.20264 17.3333 3.82547 17.3075C3.4344 17.2808 3.07265 17.2237 2.72447 17.0795C1.90771 16.7412 1.2588 16.0923 0.920484 15.2755C0.776264 14.9274 0.719152 14.5656 0.69247 14.1745C0.666736 13.7974 0.666742 13.3366 0.666748 12.7785V5.22134C0.666742 4.66319 0.666736 4.20247 0.69247 3.8253C0.719153 3.43423 0.776264 3.07248 0.920485 2.72431C1.2588 1.90754 1.90771 1.25863 2.72447 0.920319C3.07265 0.776099 3.4344 0.718987 3.82547 0.692305C4.20264 0.666571 4.66337 0.666577 5.22153 0.666584L5.7814 0.666543Z" fill="#98A2B3"/>
<path d="M11.7442 4.24402C12.0696 3.91858 12.5972 3.91858 12.9227 4.24402L17.0893 8.41068C17.4148 8.73612 17.4148 9.26376 17.0893 9.58919L12.9227 13.7559C12.5972 14.0813 12.0696 14.0813 11.7442 13.7559C11.4187 13.4304 11.4187 12.9028 11.7442 12.5773L14.4882 9.83327H6.50008C6.03984 9.83327 5.66675 9.46018 5.66675 8.99994C5.66675 8.5397 6.03984 8.16661 6.50008 8.16661H14.4882L11.7442 5.42253C11.4187 5.09709 11.4187 4.56945 11.7442 4.24402Z" fill="#98A2B3"/>
</svg>
