<svg width="16" height="18" viewBox="0 0 16 18" fill="none" xmlns="http://www.w3.org/2000/svg">
<path fill-rule="evenodd" clip-rule="evenodd" d="M0.848574 14.2526C2.49271 12.0766 5.08252 10.6666 8.00012 10.6666C10.9177 10.6666 13.5075 12.0766 15.1517 14.2526C15.1591 14.2624 15.1666 14.2723 15.1741 14.2822C15.3154 14.4691 15.467 14.6696 15.5753 14.8629C15.7064 15.097 15.8036 15.3678 15.7976 15.6971C15.7927 15.9618 15.7125 16.2096 15.6151 16.4053C15.5177 16.601 15.3684 16.8143 15.1601 16.9778C14.8823 17.1958 14.5799 17.2729 14.3113 17.3051C14.0756 17.3334 13.7962 17.3334 13.5154 17.3333C13.5027 17.3333 13.4901 17.3333 13.4774 17.3333H2.52281C2.51016 17.3333 2.4975 17.3333 2.48485 17.3333C2.20401 17.3334 1.92469 17.3334 1.68899 17.3051C1.42033 17.2729 1.11791 17.1958 0.84014 16.9778C0.631853 16.8143 0.482497 16.601 0.3851 16.4053C0.287703 16.2096 0.207499 15.9618 0.202658 15.6971C0.196635 15.3678 0.293809 15.097 0.424922 14.8629C0.533243 14.6696 0.684822 14.4691 0.826186 14.2822C0.83368 14.2723 0.841146 14.2624 0.848574 14.2526Z" fill="#98A2B3"/>
<path fill-rule="evenodd" clip-rule="evenodd" d="M3.41679 5.24996C3.41679 2.71865 5.46882 0.666626 8.00012 0.666626C10.5314 0.666626 12.5835 2.71865 12.5835 5.24996C12.5835 7.78126 10.5314 9.83329 8.00012 9.83329C5.46882 9.83329 3.41679 7.78126 3.41679 5.24996Z" fill="#98A2B3"/>
</svg>
